Coordinates
version=1
nRows=27
nColumns=12
inDegrees=yes

Units are S.I. units (second, meters, Newtons, ...)
Angles are in degrees

endheader
time	SC_y	SC_z	SC_x	AC_y	AC_z	AC_x	GH_y	GH_z	GH_yy	EL_x	PS_y
       0.0              -43.91           9.52          76.56          66.37          9.083         -9.618         -11.49          84.78         -49.57          52.43          38.97
   0.01426              -43.91          9.523          76.56          66.37          9.079         -9.615         -11.51          84.77         -49.56          52.44          38.97
   0.02851              -43.91          9.526          76.55          66.36          9.075         -9.613         -11.53          84.75         -49.54          52.45          38.98
   0.04277              -43.91           9.53          76.55          66.36          9.071          -9.61         -11.55          84.74         -49.53          52.47          38.98
   0.05702              -43.92          9.534          76.55          66.36          9.067         -9.607         -11.57          84.72         -49.51          52.48          38.98
   0.07128              -43.92          9.538          76.54          66.36          9.062         -9.603          -11.6           84.7         -49.49          52.49          38.98
   0.08554              -43.92          9.542          76.54          66.36          9.057           -9.6         -11.62          84.69         -49.47          52.51          38.98
   0.09979              -43.92          9.547          76.54          66.36          9.052         -9.596         -11.65          84.67         -49.45          52.52          38.98
     0.114              -43.92          9.552          76.53          66.36          9.047         -9.592         -11.68          84.64         -49.43          52.54          38.99
    0.1283              -43.92          9.558          76.53          66.36          9.041         -9.587         -11.71          84.62          -49.4          52.55          38.99
    0.1426              -43.92          9.563          76.52          66.36          9.034         -9.583         -11.75           84.6         -49.38          52.57          38.99
    0.1568              -43.93           9.57          76.52          66.36          9.027         -9.577         -11.78          84.57         -49.35          52.59          38.99
    0.1711              -43.93          9.576          76.51          66.35           9.02         -9.572         -11.82          84.54         -49.32          52.62           39.0
    0.1853              -43.93          9.584           76.5          66.35          9.012         -9.566         -11.87          84.51         -49.29          52.64           39.0
    0.1996              -43.93          9.591           76.5          66.35          9.003          -9.56         -11.91          84.48         -49.25          52.66           39.0
    0.2138              -43.94            9.6          76.49          66.35          8.993         -9.553         -11.96          84.44         -49.22          52.69          39.01
    0.2281              -43.94          9.609          76.48          66.35          8.983         -9.545         -12.02           84.4         -49.18          52.72          39.01
    0.2424              -43.94          9.619          76.47          66.34          8.972         -9.537         -12.08          84.36         -49.13          52.75          39.01
    0.2566              -43.95           9.63          76.46          66.34          8.959         -9.528         -12.14          84.31         -49.08          52.79          39.02
    0.2709              -43.95          9.642          76.45          66.34          8.946         -9.518         -12.21          84.26         -49.03          52.83          39.02
    0.2851              -43.95          9.656          76.44          66.34          8.931         -9.507         -12.29           84.2         -48.97          52.87          39.03
    0.2994              -43.96           9.67          76.43          66.33          8.915         -9.495         -12.37          84.14         -48.91          52.92          39.03
    0.3136              -43.96          9.686          76.42          66.33          8.897         -9.482         -12.47          84.07         -48.84          52.97          39.04
    0.3279              -43.97          9.704           76.4          66.33          8.877         -9.468         -12.57           84.0         -48.76          53.03          39.05
    0.3421              -43.98          9.724          76.38          66.32          8.855         -9.451         -12.69          83.91         -48.67          53.09          39.05
    0.3564              -43.98          9.746          76.36          66.32          8.831         -9.433         -12.82          83.82         -48.57          53.16          39.06
    0.3707              -43.99          9.771          76.34          66.31          8.803         -9.413         -12.96          83.71         -48.46          53.25          39.07
